<svg fill="none" height="24" viewBox="0 0 24 24" width="24" xmlns="http://www.w3.org/2000/svg"><path clip-rule="evenodd" d="m11.31 1.77599c.186-.17728.433-.27617.69-.27617.2569 0 .504.09889.69.27617l8 7.61863 2.5 2.37988c.1923.183.304.4349.3105.7002.0066.2654-.0925.5225-.2755.7147-.183.1923-.4349.304-.7003.3106-.2653.0065-.5224-.0926-.7147-.2756l-.81-.7729v7.5476c0 .5304-.2107 1.0391-.5858 1.4141-.3751.3751-.8838.5858-1.4142.5858h-14.00001c-.53044 0-1.03915-.2107-1.41422-.5858-.37507-.375-.58578-.8837-.58578-1.4141v-7.5476l-.81.7719c-.19202.183-.44887.2822-.71405.2759-.26517-.0064-.516955-.1179-.699954-.3099-.183-.192-.282225-.4488-.275849-.714.006376-.2651.117832-.5169.309849-.6999l2.500004-2.38088 8.00001-7.61963zm-6.31001 8.77161v9.4515h4v-4.9998c0-.7956.31607-1.5586.87867-2.1212.56264-.5626 1.32564-.8786 2.12134-.8786.7956 0 1.5587.316 2.1213.8786s.8787 1.3256.8787 2.1212v4.9998h4v-9.4515l-7-6.66771-7.00001 6.66671zm8.00001 9.4515v-4.9998c0-.2652-.1054-.5195-.2929-.707-.1875-.1876-.4419-.2929-.7071-.2929s-.5196.1053-.7071.2929c-.1876.1875-.2929.4418-.2929.707v4.9998z" fill="#000" fill-rule="evenodd"/></svg>